# xmcd CD database file
#
# Track frame offsets:
#	150
#	12877
#	25765
#	39124
#	52980
#	65383
#	79083
#	96773
#	110091
#	111033
#	127146
#	146768
#	162244
#	177366
#	190795
#	207930
#
# Disc length: 2943 seconds
#
# Revision: 1
# Processed by: cddbd v1.5.2PL0 Copyright (c) Steve Scherf et al.
# Submitted via: CDex 1.70beta3
#
DISCID=d40b7d10
DTITLE=More - スーパーロボット大戦ＭＸＤｉｓｃ-4
DYEAR=2004
DGENRE=Game
TTITLE0=流れゆく硝煙
TTITLE1=明日への行進曲
TTITLE2=平穏という名の蜃気楼
TTITLE3=解くべき方程式
TTITLE4=招かれざる異邦人
TTITLE5=疑心の媒体
TTITLE6=それは失われた記憶
TTITLE7=愚か者達の帝国
TTITLE8=Operation Start!
TTITLE9=静かなる戦術
TTITLE10=勝利者への機構
TTITLE11=試される戦略
TTITLE12=傷だらけの指揮者
TTITLE13=混沌へと続く行列
TTITLE14=互いの最終手段
TTITLE15=遥かなる戦い、開幕
EXTD=YEAR: 2004
EXTT0=
EXTT1=
EXTT2=
EXTT3=
EXTT4=
EXTT5=
EXTT6=
EXTT7=
EXTT8=
EXTT9=
EXTT10=
EXTT11=
EXTT12=
EXTT13=
EXTT14=
EXTT15=
PLAYORDER=
